HIERARCHY
ROOT Hips
{
	OFFSET 0.000000 1.471914 24.280096
	CHANNELS 6 Xposition Yposition Zposition Xrotation Yrotation Zrotation
	JOINT Spine
	{
		OFFSET 0.000000 0.900110 1.860670
		CHANNELS 6 Xposition Yposition Zposition Xrotation Yrotation Zrotation
		JOINT Spine1
		{
			OFFSET 0.000000 0.400320 2.270309
			CHANNELS 6 Xposition Yposition Zposition Xrotation Yrotation Zrotation
			JOINT Spine2
			{
				OFFSET 0.000000 0.200920 2.296560
				CHANNELS 6 Xposition Yposition Zposition Xrotation Yrotation Zrotation
				JOINT Spine3
				{
					OFFSET 0.000000 0.000000 2.305330
					CHANNELS 6 Xposition Yposition Zposition Xrotation Yrotation Zrotation
					JOINT Neck
					{
						OFFSET 0.000000 -0.864490 6.051487
						CHANNELS 6 Xposition Yposition Zposition Xrotation Yrotation Zrotation
						JOINT Head
						{
							OFFSET 0.000000 -0.550429 3.121674
							CHANNELS 6 Xposition Yposition Zposition Xrotation Yrotation Zrotation
							End Site
							{
								OFFSET 0.000000 0.000000 3.731750
							}
						}
					}
					JOINT RightShoulder
					{
						OFFSET -0.788280 -1.313800 4.256718
						CHANNELS 6 Xposition Yposition Zposition Xrotation Yrotation Zrotation
						JOINT RightArm
						{
							OFFSET -3.915130 0.000000 0.000000
							CHANNELS 6 Xposition Yposition Zposition Xrotation Yrotation Zrotation
							JOINT RightForeArm
							{
								OFFSET -6.914910 0.000000 0.000000
								CHANNELS 6 Xposition Yposition Zposition Xrotation Yrotation Zrotation
								JOINT RightHand
								{
									OFFSET -6.096219 0.000000 0.000000
									CHANNELS 6 Xposition Yposition Zposition Xrotation Yrotation Zrotation
									JOINT RightHandEnd
									{
										OFFSET -1.749950 0.000000 0.000000
										CHANNELS 6 Xposition Yposition Zposition Xrotation Yrotation Zrotation
										End Site
										{
											OFFSET -1.749950 0.000000 0.000000
										}
									}
									JOINT RightHandThumb1
									{
										OFFSET -0.699980 -1.166630 -0.466648
										CHANNELS 6 Xposition Yposition Zposition Xrotation Yrotation Zrotation
										End Site
										{
											OFFSET -1.690319 -0.452920 0.000000
										}
									}
								}
							}
						}
					}
					JOINT LeftShoulder
					{
						OFFSET 0.788280 -1.313800 4.256718
						CHANNELS 6 Xposition Yposition Zposition Xrotation Yrotation Zrotation
						JOINT LeftArm
						{
							OFFSET 3.915130 0.000000 0.000000
							CHANNELS 6 Xposition Yposition Zposition Xrotation Yrotation Zrotation
							JOINT LeftForeArm
							{
								OFFSET 6.914910 0.000000 0.000000
								CHANNELS 6 Xposition Yposition Zposition Xrotation Yrotation Zrotation
								JOINT LeftHand
								{
									OFFSET 6.096219 0.000000 0.000000
									CHANNELS 6 Xposition Yposition Zposition Xrotation Yrotation Zrotation
									JOINT LeftHandEnd
									{
										OFFSET 1.749950 0.000000 0.000000
										CHANNELS 6 Xposition Yposition Zposition Xrotation Yrotation Zrotation
										End Site
										{
											OFFSET 1.749950 0.000000 0.000000
										}
									}
									JOINT LeftHandThumb1
									{
										OFFSET 0.699980 -1.166630 -0.466648
										CHANNELS 6 Xposition Yposition Zposition Xrotation Yrotation Zrotation
										End Site
										{
											OFFSET 1.690319 -0.452920 0.000000
										}
									}
								}
							}
						}
					}
				}
			}
		}
	}
	JOINT RightUpLeg
	{
		OFFSET -2.338570 -0.252550 -0.551512
		CHANNELS 6 Xposition Yposition Zposition Xrotation Yrotation Zrotation
		JOINT RightLeg
		{
			OFFSET 0.000000 0.000000 -10.744959
			CHANNELS 6 Xposition Yposition Zposition Xrotation Yrotation Zrotation
			JOINT RightFoot
			{
				OFFSET 0.000000 -0.000001 -10.930849
				CHANNELS 6 Xposition Yposition Zposition Xrotation Yrotation Zrotation
				JOINT RightToeBase
				{
					OFFSET 0.000000 -4.087269 -1.487650
					CHANNELS 6 Xposition Yposition Zposition Xrotation Yrotation Zrotation
					End Site
					{
						OFFSET 0.000000 -1.891870 0.000000
					}
				}
			}
		}
	}
	JOINT LeftUpLeg
	{
		OFFSET 2.338570 -0.252550 -0.551512
		CHANNELS 6 Xposition Yposition Zposition Xrotation Yrotation Zrotation
		JOINT LeftLeg
		{
			OFFSET 0.000000 0.000000 -10.744959
			CHANNELS 6 Xposition Yposition Zposition Xrotation Yrotation Zrotation
			JOINT LeftFoot
			{
				OFFSET 0.000000 -0.000001 -10.930849
				CHANNELS 6 Xposition Yposition Zposition Xrotation Yrotation Zrotation
				JOINT LeftToeBase
				{
					OFFSET 0.000000 -4.087269 -1.487650
					CHANNELS 6 Xposition Yposition Zposition Xrotation Yrotation Zrotation
					End Site
					{
						OFFSET 0.000000 -1.891870 0.000000
					}
				}
			}
		}
	}
}
MOTION
Frames: 6
Frame Time: 0.041667
0.000022 26.697868 39.819912 -6.678900 4.164891 -11.336815 -0.000017 0.900096 1.860701 18.512031 -2.117942 -0.600517 0.000005 0.400301 2.270350 -0.000005 -0.000002 0.000004 0.000028 0.200917 2.296555 -0.000001 -0.000000 -0.000001 0.000005 -0.000033 2.305350 0.000014 0.000002 -3.250053 -0.000007 -0.864469 6.051492 10.589597 -1.213130 177.942930 0.000022 -0.550457 3.121693 0.000001 -0.000000 -0.000001 -0.788279 -1.313756 4.256766 -128.806289 41.194783 -42.797620 -3.915089 0.000005 -0.000027 0.000001 0.000000 0.000002 -6.914890 0.000002 -0.000002 0.000014 -0.000005 -51.100914 -6.096191 -0.000013 -0.000001 -0.000076 -0.000040 -0.000079 -1.749917 0.000002 0.000021 0.000003 0.000002 -0.000003 -0.700000 -1.166621 -0.466653 0.000006 0.000002 -0.000001 0.788277 -1.313791 4.256752 -116.095403 -33.420969 51.416237 3.915172 -0.000010 0.000004 -0.000000 0.000002 0.000003 6.914917 -0.000009 -0.000020 0.000020 -0.000007 43.152623 6.096240 0.000056 -0.000014 -0.000018 0.000029 0.000013 1.749941 0.000019 0.000017 -0.000001 -0.000003 0.000001 0.699947 -1.166587 -0.466659 0.000013 -0.000004 -0.000021 -2.338584 -0.252539 -0.551511 17.333919 -0.245059 -0.556723 0.000013 -0.000004 -10.744963 10.629892 1.276991 -0.373399 -0.000024 0.000039 -10.930844 -0.000002 -0.000001 -0.000004 0.000012 -4.087261 -1.487639 0.000002 0.000001 -0.000003 2.338566 -0.252535 -0.551455 17.917324 -5.011638 -0.590760 0.000007 -0.000018 -10.744925 11.899790 2.299627 -1.409114 -0.000006 -0.000012 -10.930864 0.000022 -0.000000 -0.000004 -0.000016 -4.087218 -1.487654 -0.000003 -0.000001 -0.000000 
0.000028 26.697874 39.819931 -6.628195 4.179688 -10.525018 -0.000017 0.900093 1.860708 18.663499 -1.260557 -0.601800 0.000006 0.400299 2.270348 -0.000006 -0.000002 0.000005 0.000028 0.200914 2.296553 0.000002 -0.000001 -0.000001 0.000006 -0.000031 2.305342 0.000016 0.000002 -3.163639 -0.000006 -0.864470 6.051481 10.001897 -1.706776 178.292526 0.000024 -0.550450 3.121693 -0.000000 -0.000001 0.000000 -0.788277 -1.313756 4.256765 -128.627147 40.487527 -42.244986 -3.915101 -0.000001 -0.000023 -0.000002 0.000003 -0.000003 -6.914886 -0.000008 0.000004 0.000011 -0.000012 -55.444706 -6.096191 -0.000010 -0.000001 -0.000076 -0.000038 -0.000079 -1.749919 -0.000002 0.000011 -0.000001 -0.000004 -0.000002 -0.700002 -1.166621 -0.466663 0.000006 -0.000002 -0.000001 0.788275 -1.313790 4.256739 -117.483762 -35.992966 51.856275 3.915170 -0.000011 0.000004 0.000002 0.000002 0.000000 6.914914 -0.000009 -0.000015 0.000018 -0.000011 39.435170 6.096236 0.000058 -0.000014 -0.000021 0.000026 0.000012 1.749930 0.000011 0.000016 -0.000001 -0.000002 0.000000 0.699936 -1.166594 -0.466664 0.000012 -0.000003 -0.000023 -2.338583 -0.252544 -0.551501 17.357906 -0.916260 -0.554653 0.000013 -0.000003 -10.744968 10.481436 1.502216 -0.488592 -0.000024 0.000036 -10.930846 -0.000009 -0.000001 -0.000003 0.000013 -4.087257 -1.487637 0.000006 0.000000 -0.000002 2.338567 -0.252543 -0.551443 17.456265 -5.698975 -0.574508 0.000007 -0.000018 -10.744931 11.988030 2.243944 -1.562439 -0.000005 -0.000013 -10.930863 0.000022 -0.000001 -0.000005 -0.000018 -4.087214 -1.487656 -0.000005 -0.000000 0.000001 
0.000037 26.697870 39.819935 -6.582880 4.154414 -9.548993 -0.000016 0.900092 1.860704 18.704041 -0.148189 -0.549177 0.000006 0.400299 2.270348 -0.000006 -0.000001 0.000003 0.000028 0.200915 2.296547 0.000001 -0.000000 -0.000002 0.000005 -0.000032 2.305350 0.000014 0.000001 -3.154184 -0.000006 -0.864469 6.051491 9.030059 -2.507993 179.098133 0.000022 -0.550456 3.121693 -0.000000 -0.000001 -0.000000 -0.788277 -1.313757 4.256765 -128.201039 39.296462 -41.574515 -3.915099 0.000007 -0.000027 -0.000002 0.000004 -0.000000 -6.914889 0.000003 -0.000000 0.000012 -0.000020 -59.503720 -6.096202 -0.000014 -0.000001 -0.000073 -0.000039 -0.000078 -1.749918 0.000000 0.000018 0.000003 -0.000000 -0.000003 -0.700004 -1.166621 -0.466656 0.000008 0.000000 -0.000005 0.788279 -1.313791 4.256747 -120.100954 -40.306265 51.379767 3.915177 -0.000004 0.000004 0.000002 0.000003 -0.000001 6.914919 -0.000013 -0.000018 0.000022 -0.000020 34.382315 6.096242 0.000058 -0.000011 -0.000019 0.000030 0.000015 1.749933 0.000014 0.000017 0.000004 -0.000003 -0.000003 0.699932 -1.166590 -0.466659 0.000017 -0.000003 -0.000023 -2.338583 -0.252543 -0.551505 17.625990 -1.879110 -0.512681 0.000014 -0.000005 -10.744970 9.821083 1.748482 -0.594838 -0.000024 0.000032 -10.930845 -0.000005 -0.000001 -0.000004 0.000011 -4.087262 -1.487638 0.000001 0.000001 -0.000004 2.338566 -0.252540 -0.551449 17.165232 -6.546475 -0.516862 0.000007 -0.000018 -10.744930 11.782916 2.234722 -1.678524 -0.000005 -0.000010 -10.930859 0.000022 -0.000001 -0.000007 -0.000018 -4.087215 -1.487655 -0.000003 -0.000001 0.000001 
0.000040 26.697874 39.819965 -6.520753 4.389590 -9.170254 -0.000017 0.900087 1.860705 18.750712 0.678400 -0.477827 0.000006 0.400299 2.270346 -0.000005 -0.000001 0.000005 0.000028 0.200917 2.296549 0.000001 -0.000000 -0.000001 0.000004 -0.000031 2.305342 0.000016 0.000002 -2.936643 -0.000006 -0.864467 6.051496 8.509221 -3.210988 179.424152 0.000023 -0.550457 3.121681 0.000000 -0.000000 -0.000001 -0.788276 -1.313754 4.256771 -129.240676 39.282802 -40.524998 -3.915097 0.000002 -0.000027 -0.000002 0.000002 0.000002 -6.914894 -0.000001 -0.000001 0.000007 -0.000015 -62.940999 -6.096197 -0.000014 -0.000008 -0.000073 -0.000040 -0.000079 -1.749920 -0.000004 0.000016 0.000004 -0.000003 0.000002 -0.700003 -1.166623 -0.466663 0.000006 -0.000001 -0.000001 0.788281 -1.313785 4.256750 -123.535063 -45.099155 50.263171 3.915178 -0.000005 0.000004 -0.000001 0.000000 0.000004 6.914918 -0.000011 -0.000020 0.000025 -0.000027 30.629218 6.096235 0.000056 -0.000008 -0.000012 0.000028 0.000015 1.749931 0.000015 0.000013 -0.000002 -0.000001 -0.000001 0.699935 -1.166591 -0.466671 0.000012 -0.000001 -0.000022 -2.338584 -0.252546 -0.551506 17.593558 -2.602431 -0.443289 0.000013 -0.000004 -10.744962 9.667545 1.836214 -0.670932 -0.000022 0.000030 -10.930846 -0.000010 -0.000002 -0.000003 0.000011 -4.087264 -1.487638 0.000002 0.000000 -0.000002 2.338565 -0.252547 -0.551447 16.907993 -7.242701 -0.444145 0.000009 -0.000017 -10.744925 11.643740 1.936854 -1.758640 -0.000005 -0.000004 -10.930861 0.000024 -0.000001 -0.000005 -0.000018 -4.087212 -1.487656 -0.000000 -0.000001 0.000001 
0.000052 26.697859 39.819942 -6.181022 4.612636 -8.433716 -0.000018 0.900091 1.860697 18.302096 1.820514 -0.331525 0.000005 0.400300 2.270348 -0.000005 -0.000002 0.000004 0.000027 0.200920 2.296555 0.000000 -0.000000 -0.000000 0.000004 -0.000031 2.305354 0.000017 0.000002 -2.731699 -0.000006 -0.864465 6.051498 8.731861 -4.166155 178.954781 0.000023 -0.550451 3.121681 0.000000 -0.000001 0.000000 -0.788279 -1.313753 4.256773 -128.794801 38.734703 -39.627931 -3.915094 -0.000003 -0.000027 -0.000001 -0.000000 0.000003 -6.914892 -0.000004 -0.000002 0.000005 -0.000022 -65.341346 -6.096196 -0.000011 -0.000002 -0.000078 -0.000038 -0.000073 -1.749911 0.000000 0.000018 0.000005 -0.000002 -0.000002 -0.699997 -1.166622 -0.466661 0.000008 0.000000 -0.000000 0.788277 -1.313787 4.256751 -127.192206 -48.984047 47.913927 3.915176 -0.000008 -0.000000 -0.000003 0.000002 -0.000001 6.914914 -0.000013 -0.000016 0.000023 -0.000033 27.045867 6.096241 0.000056 -0.000014 -0.000019 0.000029 0.000016 1.749943 0.000014 0.000023 -0.000000 -0.000003 -0.000002 0.699940 -1.166593 -0.466657 0.000013 -0.000003 -0.000023 -2.338584 -0.252544 -0.551501 17.350094 -3.965011 -0.309049 0.000013 -0.000014 -10.744968 9.777599 2.390103 -0.840292 -0.000024 0.000035 -10.930845 -0.000007 -0.000001 -0.000003 0.000011 -4.087259 -1.487637 0.000002 0.000001 -0.000001 2.338565 -0.252545 -0.551447 16.209610 -8.293419 -0.305160 0.000008 -0.000017 -10.744928 11.812728 2.043018 -1.916642 -0.000006 -0.000013 -10.930862 0.000024 -0.000001 -0.000004 -0.000017 -4.087217 -1.487655 0.000000 0.000001 0.000000 
0.000051 26.697865 39.819969 -5.727797 4.926266 -7.955687 -0.000016 0.900090 1.860699 17.853601 3.103078 -0.173695 0.000005 0.400300 2.270350 -0.000004 -0.000001 0.000004 0.000027 0.200917 2.296547 -0.000000 -0.000001 -0.000001 0.000006 -0.000040 2.305354 0.000016 0.000002 -2.506174 -0.000006 -0.864466 6.051497 8.937184 -4.844085 178.932966 0.000021 -0.550452 3.121689 0.000000 -0.000001 0.000001 -0.788276 -1.313753 4.256768 -128.703700 38.720274 -38.759411 -3.915100 -0.000004 -0.000026 -0.000001 -0.000003 0.000000 -6.914892 0.000002 -0.000002 0.000001 -0.000022 -67.734125 -6.096196 -0.000011 -0.000005 -0.000073 -0.000038 -0.000078 -1.749923 -0.000002 0.000011 0.000003 -0.000004 0.000001 -0.700003 -1.166624 -0.466660 0.000003 -0.000003 -0.000002 0.788276 -1.313788 4.256752 -129.390803 -51.216617 46.668989 3.915181 -0.000009 -0.000000 -0.000005 0.000001 0.000001 6.914920 -0.000012 -0.000019 0.000023 -0.000037 24.070978 6.096241 0.000058 -0.000015 -0.000021 0.000028 0.000013 1.749934 0.000014 0.000017 -0.000004 -0.000002 -0.000002 0.699937 -1.166590 -0.466667 0.000013 -0.000005 -0.000021 -2.338583 -0.252548 -0.551502 16.814560 -5.155171 -0.157521 0.000014 -0.000008 -10.744961 9.809736 2.799452 -0.966154 -0.000023 0.000038 -10.930846 -0.000005 -0.000001 -0.000004 0.000011 -4.087259 -1.487638 0.000003 0.000002 -0.000003 2.338567 -0.252547 -0.551449 15.299545 -9.499293 -0.158107 0.000008 -0.000018 -10.744932 11.803675 2.097364 -2.068562 -0.000005 -0.000013 -10.930861 0.000024 -0.000002 -0.000005 -0.000017 -4.087214 -1.487655 0.000003 0.000000 -0.000001 
